<svg version="1.1" id="Layer_1" xmlns="http://www.w3.org/2000/svg" xmlns:xlink="http://www.w3.org/1999/xlink" x="0px" y="0px"
	 width="100%" viewBox="0 0 192 192" enable-background="new 0 0 192 192" xml:space="preserve">
<path fill="#271A16" opacity="1.000000" stroke="none" 
	d="
M118.000000,193.000000 
	C103.312439,193.000000 88.624878,193.000000 73.385681,192.624634 
	C72.332031,191.868790 71.884521,191.297485 71.319908,191.136276 
	C61.657047,188.377151 51.598858,186.588013 42.380283,182.768799 
	C19.054617,173.105072 7.914806,156.383453 7.166672,132.241562 
	C6.776082,119.637413 9.413536,107.256584 14.170363,95.424232 
	C15.479921,92.166779 17.089598,88.643921 17.005121,85.281960 
	C16.710632,73.561638 15.064851,61.846233 15.278520,50.153553 
	C15.398476,43.589184 17.024963,36.490822 20.000431,30.669483 
	C24.665186,21.543146 32.096027,18.392576 41.594563,25.099400 
	C44.086315,26.858797 46.414993,28.849140 49.658295,31.391739 
	C49.013119,29.113049 48.858425,27.772831 48.277233,26.654207 
	C46.007278,22.285233 47.369297,18.810732 51.158012,16.419504 
	C57.965000,12.123311 64.997986,8.186424 71.898643,4.036404 
	C73.349663,3.163770 74.637154,2.019242 76.000000,1.000000 
	C89.020897,1.000000 102.041786,1.000000 115.610947,1.346495 
	C116.800980,2.144264 117.405815,2.663317 118.090218,3.036393 
	C125.478424,7.063805 133.057434,10.777366 140.221680,15.168332 
	C146.269012,18.874750 146.430679,20.467020 144.109192,27.345362 
	C143.776749,28.330315 143.700958,29.401886 143.399216,31.001587 
	C147.432327,28.165335 150.606995,24.915276 154.453766,23.525314 
	C158.012604,22.239401 163.196945,21.414820 166.054901,23.107058 
	C171.242584,26.178764 174.590073,31.471786 176.261765,37.834244 
	C180.105194,52.462353 179.438980,66.917908 176.439316,81.538940 
	C175.817001,84.572342 176.132095,88.229256 177.256104,91.115547 
	C182.275604,104.004768 186.347702,117.009430 186.010544,131.064407 
	C185.470016,153.596497 175.693329,170.768707 155.349487,180.556915 
	C145.474609,185.308090 134.407471,187.572632 123.907936,191.047134 
	C122.840141,191.400482 121.964699,192.335098 121.000000,193.000000 
	C120.555557,193.000000 120.111107,193.000000 119.331268,192.761505 
	C118.831306,192.280869 118.666740,192.038742 118.502174,191.796600 
	C118.334785,192.197739 118.167389,192.598862 118.000000,193.000000 
M164.013748,29.985624 
	C164.013748,29.985624 164.090622,29.940516 163.773270,29.311138 
	C158.865021,26.700029 155.899551,30.093006 152.109695,33.127979 
	C149.728333,35.726906 147.346970,38.325832 144.338318,41.244816 
	C143.377838,42.542370 142.417343,43.839928 141.264145,45.397839 
	C142.612610,46.385147 143.760681,47.225727 145.236755,48.652615 
	C152.830704,57.111893 160.424652,65.571175 168.087692,74.660606 
	C168.539200,75.247658 168.990707,75.834709 169.634613,76.671928 
	C172.180038,67.283157 172.082245,51.966022 169.465652,40.163815 
	C169.039688,39.088024 168.613724,38.012234 168.145187,36.215954 
	C166.783234,34.113640 165.421280,32.011326 164.013748,29.985624 
M26.207327,72.515305 
	C33.499115,64.368370 40.790901,56.221432 48.770206,47.846756 
	C49.701790,47.000362 50.633373,46.153965 52.169861,44.757977 
	C47.450165,40.054821 43.280224,35.273079 38.467003,31.263559 
	C32.604183,26.379696 28.586662,27.334690 25.655886,34.284065 
	C19.907362,47.914803 21.127554,62.043152 23.043911,77.386276 
	C24.409916,75.222557 25.092289,74.141701 26.207327,72.515305 
M49.519234,178.343704 
	C69.342484,186.028809 90.021614,187.501129 110.817757,185.256378 
	C122.051170,184.043839 133.024719,180.423676 144.825256,177.898422 
	C146.185852,177.286514 147.563263,176.709213 148.904510,176.057510 
	C169.169342,166.210815 179.699402,150.279327 178.909607,127.488655 
	C178.226212,107.767967 171.380295,90.166328 159.868546,74.296967 
	C153.312927,65.259804 145.618439,57.360126 136.029282,50.719604 
	C135.235626,52.848778 135.015808,54.931370 133.867371,56.106258 
	C132.681000,57.319962 130.440262,58.497406 128.923813,58.225216 
	C121.617966,56.913853 114.474823,54.389099 107.136208,53.634590 
	C94.012093,52.285252 80.815079,52.642700 68.063744,56.656857 
	C60.275967,59.108475 60.354153,59.341667 57.377350,51.841827 
	C57.268703,51.568100 56.910721,51.393341 56.547337,51.061371 
	C55.757694,51.585331 54.893864,52.068588 54.130737,52.677956 
	C31.385042,70.840736 17.368370,93.958893 14.274305,123.211052 
	C11.575492,148.726379 25.055466,169.958557 49.519234,178.343704 
M86.651581,6.954061 
	C75.412033,8.648407 65.208229,12.781194 56.442341,20.097700 
	C55.374794,20.988731 54.101479,22.993979 54.429436,23.983992 
	C57.439186,33.069630 60.781601,42.045071 63.968094,50.888969 
	C85.933998,45.340561 107.408127,45.507099 129.067825,50.801392 
	C132.014084,42.633003 134.795212,34.480049 137.925827,26.463577 
	C139.155350,23.315176 138.654999,21.420412 135.924652,19.392113 
	C121.457596,8.644935 105.346985,4.522634 86.651581,6.954061 
z"/>
<path fill="#000000" opacity="1.000000" stroke="none" 
	d="
M121.468658,193.000000 
	C121.964699,192.335098 122.840141,191.400482 123.907936,191.047134 
	C134.407471,187.572632 145.474609,185.308090 155.349487,180.556915 
	C175.693329,170.768707 185.470016,153.596497 186.010544,131.064407 
	C186.347702,117.009430 182.275604,104.004768 177.256104,91.115547 
	C176.132095,88.229256 175.817001,84.572342 176.439316,81.538940 
	C179.438980,66.917908 180.105194,52.462353 176.261765,37.834244 
	C174.590073,31.471786 171.242584,26.178764 166.054901,23.107058 
	C163.196945,21.414820 158.012604,22.239401 154.453766,23.525314 
	C150.606995,24.915276 147.432327,28.165335 143.399216,31.001587 
	C143.700958,29.401886 143.776749,28.330315 144.109192,27.345362 
	C146.430679,20.467020 146.269012,18.874750 140.221680,15.168332 
	C133.057434,10.777366 125.478424,7.063805 118.090218,3.036393 
	C117.405815,2.663317 116.800980,2.144264 116.079605,1.346495 
	C141.633698,1.000000 167.267395,1.000000 192.950546,1.000000 
	C192.950546,64.884789 192.950546,128.769623 192.950546,193.000000 
	C169.313553,193.000000 145.625443,193.000000 121.468658,193.000000 
z"/>
<path fill="#000000" opacity="1.000000" stroke="none" 
	d="
M75.531342,1.000000 
	C74.637154,2.019242 73.349663,3.163770 71.898643,4.036404 
	C64.997986,8.186424 57.965000,12.123311 51.158012,16.419504 
	C47.369297,18.810732 46.007278,22.285233 48.277233,26.654207 
	C48.858425,27.772831 49.013119,29.113049 49.658295,31.391739 
	C46.414993,28.849140 44.086315,26.858797 41.594563,25.099400 
	C32.096027,18.392576 24.665186,21.543146 20.000431,30.669483 
	C17.024963,36.490822 15.398476,43.589184 15.278520,50.153553 
	C15.064851,61.846233 16.710632,73.561638 17.005121,85.281960 
	C17.089598,88.643921 15.479921,92.166779 14.170363,95.424232 
	C9.413536,107.256584 6.776082,119.637413 7.166672,132.241562 
	C7.914806,156.383453 19.054617,173.105072 42.380283,182.768799 
	C51.598858,186.588013 61.657047,188.377151 71.319908,191.136276 
	C71.884521,191.297485 72.332031,191.868790 72.917023,192.624634 
	C49.031006,193.000000 25.062012,193.000000 1.046510,193.000000 
	C1.046510,129.113724 1.046510,65.227394 1.046510,1.000000 
	C25.686514,1.000000 50.374599,1.000000 75.531342,1.000000 
z"/>
<path fill="#000000" opacity="1.000000" stroke="none" 
	d="
M118.250000,193.000000 
	C118.167389,192.598862 118.334785,192.197739 118.502174,191.796600 
	C118.666740,192.038742 118.831306,192.280869 118.997940,192.761505 
	C119.000000,193.000000 118.500000,193.000000 118.250000,193.000000 
z"/>
<path fill="#FAD6A2" opacity="1.000000" stroke="none" 
	d="
M48.891121,177.902725 
	C25.055466,169.958557 11.575492,148.726379 14.274305,123.211052 
	C17.368370,93.958893 31.385042,70.840736 54.130737,52.677956 
	C54.893864,52.068588 55.757694,51.585331 56.547337,51.061371 
	C56.910721,51.393341 57.268703,51.568100 57.377350,51.841827 
	C60.354153,59.341667 60.275967,59.108475 68.063744,56.656857 
	C80.815079,52.642700 94.012093,52.285252 107.136208,53.634590 
	C114.474823,54.389099 121.617966,56.913853 128.923813,58.225216 
	C130.440262,58.497406 132.681000,57.319962 133.867371,56.106258 
	C135.015808,54.931370 135.235626,52.848778 136.029282,50.719604 
	C145.618439,57.360126 153.312927,65.259804 159.868546,74.296967 
	C171.380295,90.166328 178.226212,107.767967 178.909607,127.488655 
	C179.699402,150.279327 169.169342,166.210815 148.904510,176.057510 
	C147.563263,176.709213 146.185852,177.286514 144.501907,177.508850 
	C146.323318,167.390671 148.320526,157.601059 144.990265,147.785950 
	C141.915833,138.724854 136.772263,131.297134 127.070358,127.579956 
	C125.908882,126.877045 124.961098,126.422737 123.770935,125.732285 
	C122.012131,125.015892 120.495720,124.535645 118.724396,123.781708 
	C113.969879,122.728180 109.470276,121.948326 104.506439,121.119583 
	C97.705208,121.140854 91.368217,121.211014 84.747452,121.229057 
	C83.971764,121.428513 83.479858,121.680077 82.605293,121.941971 
	C80.485504,122.328979 78.748367,122.705666 76.716919,123.070435 
	C75.939545,123.351341 75.456490,123.644157 74.645828,123.952721 
	C73.885010,124.026733 73.451790,124.084991 72.689484,124.137680 
	C71.237938,124.749344 70.115479,125.366585 68.635452,126.027130 
	C56.091728,131.371292 48.023064,140.234726 47.178986,153.737152 
	C46.679611,161.725449 48.250942,169.843185 48.891121,177.902725 
M63.042667,103.520554 
	C56.585716,105.714340 52.261951,111.842270 53.080139,118.289566 
	C53.249901,119.627289 55.044693,120.758797 56.090557,121.985344 
	C57.191231,120.970459 58.687923,120.147850 59.296673,118.894119 
	C60.139626,117.158012 59.947380,114.887695 60.888725,113.240662 
	C61.681625,111.853355 63.481094,110.163506 64.795670,110.196053 
	C66.143417,110.229431 67.881454,111.954224 68.650299,113.371758 
	C69.554260,115.038399 69.279961,117.327553 70.124176,119.048752 
	C70.727013,120.277832 72.388893,121.823288 73.472595,121.746040 
	C74.560089,121.668526 76.334862,119.797897 76.395988,118.638641 
	C76.754166,111.846565 72.367729,102.756737 63.042667,103.520554 
M132.339935,113.440758 
	C132.788651,115.368172 132.920898,117.457130 133.794144,119.167847 
	C134.405869,120.366249 136.127655,121.861420 137.173325,121.734779 
	C138.242996,121.605232 139.858353,119.691910 139.908249,118.503700 
	C140.143600,112.899628 138.220871,108.047195 133.359222,104.844856 
	C129.998764,102.631348 126.382538,102.716805 123.057274,104.911766 
	C118.169556,108.138100 116.501892,113.122978 116.650314,118.661537 
	C116.680710,119.796135 118.480850,121.690323 119.562698,121.761917 
	C120.636681,121.833008 122.247749,120.256737 122.872154,119.022812 
	C123.660103,117.465698 123.430229,115.420769 124.091721,113.767204 
	C125.933601,109.162971 128.503555,108.882385 132.339935,113.440758 
M67.860016,82.455116 
	C69.894508,79.688324 68.413925,76.912750 66.169685,76.406494 
	C62.941483,75.678268 59.045223,75.767822 56.003716,76.960686 
	C52.982746,78.145485 53.498226,81.924072 56.554176,83.583008 
	C60.208618,85.566826 63.851250,85.312355 67.860016,82.455116 
M125.657066,76.997108 
	C125.605537,78.883781 125.052399,82.232933 125.585297,82.415710 
	C128.650085,83.466911 132.009811,84.295898 135.188751,84.068909 
	C136.496185,83.975563 138.089325,81.193123 138.583755,79.370995 
	C138.813309,78.525024 136.813980,76.143646 135.676056,76.036179 
	C132.578842,75.743668 129.402206,76.292381 125.657066,76.997108 
z"/>
<path fill="#FDFDFC" opacity="1.000000" stroke="none" 
	d="
M127.284058,127.828552 
	C136.772263,131.297134 141.915833,138.724854 144.990265,147.785950 
	C148.320526,157.601059 146.323318,167.390671 144.147034,177.504486 
	C133.024719,180.423676 122.051170,184.043839 110.817757,185.256378 
	C90.021614,187.501129 69.342484,186.028809 49.205177,178.123215 
	C48.250942,169.843185 46.679611,161.725449 47.178986,153.737152 
	C48.023064,140.234726 56.091728,131.371292 68.855087,126.265656 
	C70.627716,125.688354 71.823143,124.915802 73.018570,124.143250 
	C73.451790,124.084991 73.885010,124.026733 74.820862,124.163025 
	C75.886070,123.932495 76.448654,123.507423 77.011238,123.082352 
	C78.748367,122.705666 80.485504,122.328979 82.638924,122.205231 
	C83.713882,122.065834 84.372559,121.673500 85.031227,121.281174 
	C91.368217,121.211014 97.705208,121.140854 104.513046,121.561295 
	C104.922043,123.239113 104.860199,124.426338 104.357178,125.484314 
	C99.971397,125.219215 96.022110,124.895645 92.083313,124.993584 
	C86.806961,125.124809 84.357903,128.576416 86.968254,133.213654 
	C88.732773,136.348297 92.319115,138.457413 94.733505,141.143463 
	C89.889099,143.046387 85.401756,144.831131 81.931145,146.211487 
	C79.752213,144.007980 78.550362,142.367081 76.942688,141.402634 
	C76.396187,141.074799 74.054916,142.281448 73.877792,143.083679 
	C73.443619,145.050095 73.154076,147.518402 74.004257,149.166992 
	C74.864052,150.834229 77.094154,152.674042 78.848785,152.808365 
	C82.014656,153.050751 85.945335,153.063660 88.359924,151.417328 
	C94.185516,147.445297 99.040665,147.406952 104.733513,151.598328 
	C109.013039,154.749146 116.250282,153.866333 118.339066,150.302994 
	C119.447830,148.411484 119.398064,145.664871 119.282784,143.333344 
	C119.245621,142.581619 116.846474,141.089279 116.362457,141.370789 
	C114.602127,142.394547 113.195259,144.026047 111.004974,146.020355 
	C107.019493,144.602585 101.979950,142.809830 97.068115,140.672089 
	C105.404732,138.156281 108.362762,133.224655 106.106415,126.038185 
	C110.648582,125.336357 114.813942,124.695877 118.979301,124.055389 
	C120.495720,124.535645 122.012131,125.015892 123.845490,126.084412 
	C125.202972,127.057976 126.243515,127.443260 127.284058,127.828552 
z"/>
<path fill="#FCFAFA" opacity="1.000000" stroke="none" 
	d="
M87.089630,6.907613 
	C105.346985,4.522634 121.457596,8.644935 135.924652,19.392113 
	C138.654999,21.420412 139.155350,23.315176 137.925827,26.463577 
	C134.795212,34.480049 132.014084,42.633003 129.067825,50.801392 
	C107.408127,45.507099 85.933998,45.340561 63.968094,50.888969 
	C60.781601,42.045071 57.439186,33.069630 54.429436,23.983992 
	C54.101479,22.993979 55.374794,20.988731 56.442341,20.097700 
	C65.208229,12.781194 75.412033,8.648407 87.089630,6.907613 
M84.540283,25.103291 
	C84.540283,28.219639 84.540283,31.335989 84.540283,34.613449 
	C86.472557,34.865948 88.045715,35.071522 89.557297,35.269047 
	C89.902725,37.037121 90.202370,38.570900 90.466034,39.920479 
	C94.146408,39.920479 97.413826,39.920479 100.827843,39.920479 
	C100.976067,38.205692 101.099831,36.773838 101.233391,35.228703 
	C103.050705,35.016224 104.631912,34.831352 106.263031,34.640644 
	C106.263031,31.008877 106.263031,27.648968 106.263031,24.197191 
	C104.414948,24.045692 102.964073,23.926758 101.364143,23.795603 
	C101.111748,22.069096 100.883484,20.507683 100.648277,18.898750 
	C97.071419,18.898750 93.807884,18.898750 90.322456,18.898750 
	C90.075203,20.655386 89.854805,22.221207 89.644577,23.714785 
	C87.915596,23.954027 86.454674,24.156179 84.540283,25.103291 
z"/>
<path fill="#FCFBF7" opacity="1.000000" stroke="none" 
	d="
M48.082687,48.074493 
	C40.790901,56.221432 33.499115,64.368370 25.640011,72.640022 
	C24.468676,69.931778 23.432146,67.112389 23.342806,64.263283 
	C23.088291,56.146912 23.367380,47.998199 27.570478,40.702862 
	C30.049480,36.400051 34.563503,35.178200 38.509689,38.212757 
	C42.103420,40.976284 44.922279,44.747467 48.082687,48.074493 
z"/>
<path fill="#FCFBF8" opacity="1.000000" stroke="none" 
	d="
M168.018600,74.030449 
	C160.424652,65.571175 152.830704,57.111893 145.136917,48.029793 
	C146.040573,45.944962 147.044067,44.482948 148.256134,42.907852 
	C148.721039,42.592991 148.902222,42.337856 149.287415,41.891594 
	C150.423660,40.858669 151.280777,39.963512 152.446335,38.931725 
	C154.176529,38.106831 155.598267,37.418571 157.442780,36.785908 
	C159.574142,36.896080 161.282730,36.950657 163.138824,37.288948 
	C164.221039,38.709637 165.155731,39.846600 166.135712,41.356377 
	C170.410812,52.290493 169.743011,63.130417 168.018600,74.030449 
z"/>
<path fill="#EED2A8" opacity="1.000000" stroke="none" 
	d="
M48.426445,47.960625 
	C44.922279,44.747467 42.103420,40.976284 38.509689,38.212757 
	C34.563503,35.178200 30.049480,36.400051 27.570478,40.702862 
	C23.367380,47.998199 23.088291,56.146912 23.342806,64.263283 
	C23.432146,67.112389 24.468676,69.931778 25.423677,72.912788 
	C25.092289,74.141701 24.409916,75.222557 23.043911,77.386276 
	C21.127554,62.043152 19.907362,47.914803 25.655886,34.284065 
	C28.586662,27.334690 32.604183,26.379696 38.467003,31.263559 
	C43.280224,35.273079 47.450165,40.054821 52.169861,44.757977 
	C50.633373,46.153965 49.701790,47.000362 48.426445,47.960625 
z"/>
<path fill="#FBD7A1" opacity="1.000000" stroke="none" 
	d="
M149.008255,42.029358 
	C148.902222,42.337856 148.721039,42.592991 147.898148,42.889889 
	C146.542923,42.298260 145.754257,41.611511 144.965607,40.924759 
	C147.346970,38.325832 149.728333,35.726906 152.836426,33.035133 
	C157.072296,31.941700 160.581467,30.941111 164.090622,29.940517 
	C164.090622,29.940516 164.013748,29.985624 164.026413,30.316557 
	C165.421982,32.743805 166.804871,34.840122 168.187775,36.936440 
	C168.613724,38.012234 169.039688,39.088024 169.074905,40.546211 
	C167.819580,40.946922 166.954987,40.965244 166.090408,40.983566 
	C165.155731,39.846600 164.221039,38.709637 163.048538,36.937141 
	C160.734955,34.478821 158.759430,34.010040 157.020004,36.730309 
	C155.598267,37.418571 154.176529,38.106831 152.066772,38.922115 
	C150.588577,40.042545 149.798416,41.035950 149.008255,42.029358 
z"/>
<path fill="#EBD1AB" opacity="1.000000" stroke="none" 
	d="
M166.135712,41.356377 
	C166.954987,40.965244 167.819580,40.946922 169.116699,40.899727 
	C172.082245,51.966022 172.180038,67.283157 169.634613,76.671928 
	C168.990707,75.834709 168.539200,75.247658 168.053146,74.345528 
	C169.743011,63.130417 170.410812,52.290493 166.135712,41.356377 
z"/>
<path fill="#EBD1AB" opacity="1.000000" stroke="none" 
	d="
M163.931946,29.625830 
	C160.581467,30.941111 157.072296,31.941700 153.150848,32.911995 
	C155.899551,30.093006 158.865021,26.700029 163.931946,29.625830 
z"/>
<path fill="#F1D3AA" opacity="1.000000" stroke="none" 
	d="
M144.651962,41.084789 
	C145.754257,41.611511 146.542923,42.298260 147.689575,43.002972 
	C147.044067,44.482948 146.040573,45.944962 144.972916,47.736637 
	C143.760681,47.225727 142.612610,46.385147 141.264145,45.397839 
	C142.417343,43.839928 143.377838,42.542370 144.651962,41.084789 
z"/>
<path fill="#EBD1AB" opacity="1.000000" stroke="none" 
	d="
M168.166473,36.576195 
	C166.804871,34.840122 165.421982,32.743805 164.049194,30.278252 
	C165.421280,32.011326 166.783234,34.113640 168.166473,36.576195 
z"/>
<path fill="#2F1F14" opacity="1.000000" stroke="none" 
	d="
M63.415733,103.429550 
	C72.367729,102.756737 76.754166,111.846565 76.395988,118.638641 
	C76.334862,119.797897 74.560089,121.668526 73.472595,121.746040 
	C72.388893,121.823288 70.727013,120.277832 70.124176,119.048752 
	C69.279961,117.327553 69.554260,115.038399 68.650299,113.371758 
	C67.881454,111.954224 66.143417,110.229431 64.795670,110.196053 
	C63.481094,110.163506 61.681625,111.853355 60.888725,113.240662 
	C59.947380,114.887695 60.139626,117.158012 59.296673,118.894119 
	C58.687923,120.147850 57.191231,120.970459 56.090557,121.985344 
	C55.044693,120.758797 53.249901,119.627289 53.080139,118.289566 
	C52.261951,111.842270 56.585716,105.714340 63.415733,103.429550 
z"/>
<path fill="#2E1E12" opacity="1.000000" stroke="none" 
	d="
M132.170837,113.084167 
	C128.503555,108.882385 125.933601,109.162971 124.091721,113.767204 
	C123.430229,115.420769 123.660103,117.465698 122.872154,119.022812 
	C122.247749,120.256737 120.636681,121.833008 119.562698,121.761917 
	C118.480850,121.690323 116.680710,119.796135 116.650314,118.661537 
	C116.501892,113.122978 118.169556,108.138100 123.057274,104.911766 
	C126.382538,102.716805 129.998764,102.631348 133.359222,104.844856 
	C138.220871,108.047195 140.143600,112.899628 139.908249,118.503700 
	C139.858353,119.691910 138.242996,121.605232 137.173325,121.734779 
	C136.127655,121.861420 134.405869,120.366249 133.794144,119.167847 
	C132.920898,117.457130 132.788651,115.368172 132.170837,113.084167 
z"/>
<path fill="#FDFAEF" opacity="1.000000" stroke="none" 
	d="
M67.590790,82.718231 
	C63.851250,85.312355 60.208618,85.566826 56.554176,83.583008 
	C53.498226,81.924072 52.982746,78.145485 56.003716,76.960686 
	C59.045223,75.767822 62.941483,75.678268 66.169685,76.406494 
	C68.413925,76.912750 69.894508,79.688324 67.590790,82.718231 
z"/>
<path fill="#FDFAEE" opacity="1.000000" stroke="none" 
	d="
M125.957047,76.752411 
	C129.402206,76.292381 132.578842,75.743668 135.676056,76.036179 
	C136.813980,76.143646 138.813309,78.525024 138.583755,79.370995 
	C138.089325,81.193123 136.496185,83.975563 135.188751,84.068909 
	C132.009811,84.295898 128.650085,83.466911 125.585297,82.415710 
	C125.052399,82.232933 125.605537,78.883781 125.957047,76.752411 
z"/>
<path fill="#FBF8F0" opacity="1.000000" stroke="none" 
	d="
M118.724396,123.781708 
	C114.813942,124.695877 110.648582,125.336357 105.914413,126.043716 
	C105.069138,126.048462 104.886726,125.882782 104.798355,125.613556 
	C104.860199,124.426338 104.922043,123.239113 104.977280,121.610184 
	C109.470276,121.948326 113.969879,122.728180 118.724396,123.781708 
z"/>
<path fill="#FBF8F0" opacity="1.000000" stroke="none" 
	d="
M72.689484,124.137680 
	C71.823143,124.915802 70.627716,125.688354 69.212662,126.222366 
	C70.115479,125.366585 71.237938,124.749344 72.689484,124.137680 
z"/>
<path fill="#FBF8F0" opacity="1.000000" stroke="none" 
	d="
M84.747452,121.229050 
	C84.372559,121.673500 83.713882,122.065834 83.021584,122.194916 
	C83.479858,121.680077 83.971764,121.428513 84.747452,121.229050 
z"/>
<path fill="#FBF8F0" opacity="1.000000" stroke="none" 
	d="
M127.070358,127.579956 
	C126.243515,127.443260 125.202972,127.057976 124.087875,126.320557 
	C124.961098,126.422737 125.908882,126.877045 127.070358,127.579956 
z"/>
<path fill="#FBF8F0" opacity="1.000000" stroke="none" 
	d="
M76.716919,123.070435 
	C76.448654,123.507423 75.886070,123.932495 75.148460,124.147263 
	C75.456490,123.644157 75.939545,123.351341 76.716919,123.070435 
z"/>
<path fill="#291F1E" opacity="1.000000" stroke="none" 
	d="
M96.940414,141.017090 
	C101.979950,142.809830 107.019493,144.602585 111.004974,146.020355 
	C113.195259,144.026047 114.602127,142.394547 116.362457,141.370789 
	C116.846474,141.089279 119.245621,142.581619 119.282784,143.333344 
	C119.398064,145.664871 119.447830,148.411484 118.339066,150.302994 
	C116.250282,153.866333 109.013039,154.749146 104.733513,151.598328 
	C99.040665,147.406952 94.185516,147.445297 88.359924,151.417328 
	C85.945335,153.063660 82.014656,153.050751 78.848785,152.808365 
	C77.094154,152.674042 74.864052,150.834229 74.004257,149.166992 
	C73.154076,147.518402 73.443619,145.050095 73.877792,143.083679 
	C74.054916,142.281448 76.396187,141.074799 76.942688,141.402634 
	C78.550362,142.367081 79.752213,144.007980 81.931145,146.211487 
	C85.401756,144.831131 89.889099,143.046387 95.041687,141.130493 
	C96.118095,141.005234 96.529251,141.011169 96.940414,141.017090 
z"/>
<path fill="#241A18" opacity="1.000000" stroke="none" 
	d="
M97.068115,140.672089 
	C96.529251,141.011169 96.118095,141.005234 95.398743,141.012283 
	C92.319115,138.457413 88.732773,136.348297 86.968254,133.213654 
	C84.357903,128.576416 86.806961,125.124809 92.083313,124.993584 
	C96.022110,124.895645 99.971397,125.219215 104.357178,125.484314 
	C104.886726,125.882782 105.069138,126.048462 105.537598,126.105072 
	C108.362762,133.224655 105.404732,138.156281 97.068115,140.672089 
z"/>
<path fill="#DB0D1D" opacity="1.000000" stroke="none" 
	d="
M84.767014,24.730810 
	C86.454674,24.156179 87.915596,23.954027 89.644577,23.714785 
	C89.854805,22.221207 90.075203,20.655386 90.322456,18.898750 
	C93.807884,18.898750 97.071419,18.898750 100.648277,18.898750 
	C100.883484,20.507683 101.111748,22.069096 101.364143,23.795603 
	C102.964073,23.926758 104.414948,24.045692 106.263031,24.197191 
	C106.263031,27.648968 106.263031,31.008877 106.263031,34.640644 
	C104.631912,34.831352 103.050705,35.016224 101.233391,35.228703 
	C101.099831,36.773838 100.976067,38.205692 100.827843,39.920479 
	C97.413826,39.920479 94.146408,39.920479 90.466034,39.920479 
	C90.202370,38.570900 89.902725,37.037121 89.557297,35.269047 
	C88.045715,35.071522 86.472557,34.865948 84.540283,34.613449 
	C84.540283,31.335989 84.540283,28.219639 84.767014,24.730810 
z"/>
<path fill="#EBD1AB" opacity="1.000000" stroke="none" 
	d="
M157.442780,36.785908 
	C158.759430,34.010040 160.734955,34.478821 162.901001,36.653419 
	C161.282730,36.950657 159.574142,36.896080 157.442780,36.785908 
z"/>
<path fill="#F1D3AA" opacity="1.000000" stroke="none" 
	d="
M149.287415,41.891590 
	C149.798416,41.035950 150.588577,40.042545 151.758316,39.058750 
	C151.280777,39.963512 150.423660,40.858669 149.287415,41.891590 
z"/>
</svg>